<?xml version="1.0" encoding="UTF-8"?>
<svg version="1.1" xmlns="http://www.w3.org/2000/svg" width="60" height="60">
<path d="M0 0 C16.83 0 33.66 0 51 0 C51.1546875 6.06375 51.1546875 6.06375 51.3125 12.25 C51.35802002 13.49813477 51.40354004 14.74626953 51.45043945 16.03222656 C51.59045448 27.53333215 47.84743312 37.51914178 40 46 C31.32752414 54.49116974 31.32752414 54.49116974 27 56 C19.73961192 55.51365821 14.29237865 49.59802914 9.71484375 44.41015625 C-1.17165346 30.22718699 0 18.68884494 0 0 Z " fill="#0B326D" transform="translate(4,2)"/>
<path d="M0 0 C2 2 2 2 2.01953125 5.30078125 C1.95963518 6.63846006 1.89023347 7.97573912 1.8125 9.3125 C1.38877803 15.08139682 1.38877803 15.08139682 4.36328125 19.78515625 C5.23339844 20.51605469 6.10351562 21.24695313 7 22 C7.78375 23.03125 8.5675 24.0625 9.375 25.125 C12.49027603 28.53696898 14.7072147 29.4848993 19 31 C15.23991601 37.66560343 8.41634737 45.50857081 1 48 C-3.3393234 47.74925258 -5.7617101 45.96409617 -9.0625 43.25 C-9.89910156 42.57453125 -10.73570313 41.8990625 -11.59765625 41.203125 C-14.0501806 38.95398072 -16.08367387 36.72037906 -18 34 C-17.75 31.6875 -17.75 31.6875 -17 30 C-16.01 29.87625 -15.02 29.7525 -14 29.625 C-8.25258797 28.07355135 -5.27850659 22.61545603 -2 18 C-2.32355469 17.41347656 -2.64710937 16.82695312 -2.98046875 16.22265625 C-4.44647449 13.02665141 -4.31533405 10.46867459 -4 7 C-2.5625 5.3125 -2.5625 5.3125 -1 4 C-0.28552357 1.89667109 -0.28552357 1.89667109 0 0 Z " fill="#CCAD1B" transform="translate(30,10)"/>
<path d="M0 0 C2 2 2 2 2.1953125 5.0390625 C2.17210937 6.22242188 2.14890625 7.40578125 2.125 8.625 C2.10695313 9.81351563 2.08890625 11.00203125 2.0703125 12.2265625 C2.04710937 13.14179688 2.02390625 14.05703125 2 15 C0.125 15.625 0.125 15.625 -2 16 C-4 14 -4 14 -4.3125 10.5625 C-3.97711664 6.73912971 -3.75641687 6.31539017 -1 4 C-0.28552357 1.89667109 -0.28552357 1.89667109 0 0 Z " fill="#EC880E" transform="translate(30,10)"/>
</svg>
